<svg width="35" height="34" viewBox="0 0 35 34" fill="none" xmlns="http://www.w3.org/2000/svg">
    <path d="M23.7183 11.5562C23.7182 11.291 23.6129 11.0367 23.4254 10.8492C23.2379 10.6617 22.9836 10.5563 22.7184 10.5563L14.7182 10.5563C14.5854 10.554 14.4536 10.5782 14.3302 10.6274C14.2069 10.6766 14.0946 10.7499 13.9999 10.8429C13.9052 10.936 13.83 11.047 13.7786 11.1695C13.7273 11.2919 13.7008 11.4234 13.7008 11.5562C13.7008 11.6889 13.7273 11.8204 13.7786 11.9428C13.83 12.0653 13.9052 12.1763 13.9999 12.2694C14.0946 12.3625 14.2069 12.4357 14.3302 12.4849C14.4536 12.5342 14.5854 12.5583 14.7182 12.556L20.3044 12.556L10.9401 21.9202C10.7526 22.1078 10.6472 22.3621 10.6472 22.6273C10.6472 22.8925 10.7526 23.1469 10.9401 23.3344C11.1277 23.522 11.382 23.6273 11.6472 23.6273C11.9125 23.6273 12.1668 23.522 12.3544 23.3344L21.7186 13.9702L21.7186 19.5564C21.7231 19.8185 21.8305 20.0684 22.0175 20.2522C22.2045 20.436 22.4562 20.539 22.7184 20.539C22.9806 20.539 23.2323 20.436 23.4194 20.2522C23.6064 20.0684 23.7137 19.8185 23.7183 19.5564L23.7183 11.5562Z" fill="black"/>
</svg>
