<svg width="153" height="50" viewBox="0 0 153 50" fill="none" xmlns="http://www.w3.org/2000/svg">
<path d="M0.5 25C0.5 11.469 11.469 0.5 25 0.5H128C141.531 0.5 152.5 11.469 152.5 25C152.5 38.531 141.531 49.5 128 49.5H25C11.469 49.5 0.5 38.531 0.5 25Z" stroke="black"/>
<path d="M24 36.11H47V13.11H24V36.11Z" fill="black"/>
<path d="M52 25L70 25M52 25L58 31M52 25L58 19" stroke="black" stroke-width="2" stroke-linecap="round" stroke-linejoin="round"/>
<path d="M77.0256 33.5V16.7727H87.1207V18.5696H79.0511V23.7969H83.2983C84.4962 23.7969 85.5063 23.9929 86.3285 24.3849C87.1561 24.777 87.7823 25.3297 88.207 26.043C88.6372 26.7563 88.8523 27.5975 88.8523 28.5668C88.8523 29.536 88.6372 30.3909 88.207 31.1314C87.7823 31.8719 87.1561 32.4518 86.3285 32.8711C85.5063 33.2904 84.4962 33.5 83.2983 33.5H77.0256ZM79.0511 31.7358H83.2983C84.0606 31.7358 84.7058 31.5833 85.234 31.2784C85.7676 30.968 86.1706 30.5705 86.4428 30.0859C86.7205 29.5959 86.8594 29.0786 86.8594 28.5341C86.8594 27.7337 86.5517 27.0449 85.9364 26.4677C85.3211 25.8851 84.4418 25.5938 83.2983 25.5938H79.0511V31.7358ZM95.6171 33.794C94.8221 33.794 94.1006 33.6443 93.4527 33.3448C92.8047 33.0399 92.2902 32.6016 91.909 32.0298C91.5278 31.4527 91.3373 30.7557 91.3373 29.9389C91.3373 29.2202 91.4788 28.6375 91.762 28.1911C92.0451 27.7391 92.4236 27.3852 92.8973 27.1293C93.371 26.8733 93.8937 26.6828 94.4655 26.5575C95.0426 26.4268 95.6225 26.3234 96.2052 26.2472C96.9675 26.1491 97.5855 26.0756 98.0592 26.0266C98.5384 25.9722 98.8869 25.8823 99.1047 25.7571C99.3279 25.6319 99.4395 25.4141 99.4395 25.1037V25.0384C99.4395 24.2325 99.219 23.6063 98.778 23.1598C98.3424 22.7133 97.6808 22.4901 96.7932 22.4901C95.873 22.4901 95.1515 22.6915 94.6288 23.0945C94.1061 23.4974 93.7385 23.9276 93.5262 24.3849L91.6966 23.7315C92.0233 22.9692 92.459 22.3757 93.0035 21.951C93.5534 21.5208 94.1524 21.2214 94.8003 21.0526C95.4537 20.8783 96.0963 20.7912 96.7279 20.7912C97.1308 20.7912 97.5937 20.8402 98.1164 20.9382C98.6446 21.0308 99.1537 21.2241 99.6437 21.5181C100.139 21.8121 100.55 22.2559 100.877 22.8494C101.204 23.4429 101.367 24.2379 101.367 25.2344V33.5H99.4395V31.8011H99.3415C99.2108 32.0734 98.993 32.3647 98.6881 32.6751C98.3832 32.9854 97.9775 33.2495 97.4711 33.4673C96.9648 33.6851 96.3467 33.794 95.6171 33.794ZM95.9111 32.0625C96.6734 32.0625 97.316 31.9128 97.8387 31.6133C98.3669 31.3138 98.7644 30.9272 99.0312 30.4535C99.3034 29.9798 99.4395 29.4815 99.4395 28.9588V27.1946C99.3579 27.2926 99.1782 27.3825 98.9005 27.4641C98.6282 27.5404 98.3124 27.6084 97.953 27.6683C97.5991 27.7228 97.2533 27.7718 96.9157 27.8153C96.5836 27.8535 96.3141 27.8861 96.1072 27.9134C95.6062 27.9787 95.1379 28.0849 94.7023 28.2319C94.2722 28.3735 93.9237 28.5885 93.6569 28.8771C93.3955 29.1603 93.2648 29.5469 93.2648 30.0369C93.2648 30.7067 93.5126 31.2131 94.0081 31.5561C94.509 31.8937 95.1434 32.0625 95.9111 32.0625ZM113.282 26.3452V28.142H106.355V26.3452H113.282ZM106.813 20.9545V33.5H104.885V20.9545H106.813ZM114.752 20.9545V33.5H112.824V20.9545H114.752ZM118.272 33.5V20.9545H120.2V26.4105H121.474L125.982 20.9545H128.465L123.401 26.9986L128.531 33.5H126.048L121.931 28.2074H120.2V33.5H118.272Z" fill="black"/>
</svg>
